<svg xmlns="http://www.w3.org/2000/svg" width="600" height="372" viewBox="0 0 600 372" role="img" aria-labelledby="title desc">
<title id="title">Eclipxse Music | Windows audio</title><desc id="desc">Procedural frequency bars illustrate the music project. Audio flows through MediaKit and libmpv.</desc>
<style>text{font-family:Consolas,"Liberation Mono",Menlo,monospace}path{stroke-linecap:round}
.frequency{transform-origin:0 0;animation:frequency 2s ease-in-out infinite}@keyframes frequency{0%,100%{transform:scaleY(.28);opacity:.5}45%{transform:scaleY(1);opacity:1}75%{transform:scaleY(.55);opacity:.8}}
@media(prefers-reduced-motion:reduce){.move,.move *,.ascii-frame,.wire-frame{animation:none!important}.ascii-frame,.wire-frame{opacity:0!important}.frame-0{opacity:1!important}}</style>
<rect x="1" y="1" width="598" height="370" fill="#0b0d0e" rx="8" stroke="#303638"/><text x="36" y="52" font-size="21" fill="#a0a9a2" letter-spacing="2">ECLIPXSE</text><text x="32" y="115" font-size="58" fill="#f0f2e9" font-weight="700" letter-spacing="-3">MUSIC</text><g transform="translate(42.0 224)"><rect x="0" y="-35.502014343810835" width="3.8" height="71.00402868762167" fill="#c3f86b" rx="1.9" class="move frequency" style="animation-delay:-0.000s;animation-duration:1.60s"/></g><g transform="translate(50.4 224)"><rect x="0" y="-38.701613903093595" width="3.8" height="77.40322780618719" fill="#c3f86b" rx="1.9" class="move frequency" style="animation-delay:-0.133s;animation-duration:1.81s"/></g><g transform="translate(58.8 224)"><rect x="0" y="-39.30616200965816" width="3.8" height="78.61232401931632" fill="#c3f86b" rx="1.9" class="move frequency" style="animation-delay:-0.266s;animation-duration:2.02s"/></g><g transform="translate(67.2 224)"><rect x="0" y="-39.987655049067925" width="3.8" height="79.97531009813585" fill="#c3f86b" rx="1.9" class="move frequency" style="animation-delay:-0.399s;animation-duration:2.23s"/></g><g transform="translate(75.5 224)"><rect x="0" y="-43.34470204938594" width="3.8" height="86.68940409877187" fill="#c3f86b" rx="1.9" class="move frequency" style="animation-delay:-0.532s;animation-duration:2.44s"/></g><g transform="translate(83.9 224)"><rect x="0" y="-50.057190900359466" width="3.8" height="100.11438180071893" fill="#c3f86b" rx="1.9" class="move frequency" style="animation-delay:-0.665s;animation-duration:1.60s"/></g><g transform="translate(92.3 224)"><rect x="0" y="-58.23124496500981" width="3.8" height="116.46248993001961" fill="#c3f86b" rx="1.9" class="move frequency" style="animation-delay:-0.798s;animation-duration:1.81s"/></g><g transform="translate(100.7 224)"><rect x="0" y="-64.35348425339535" width="3.8" height="128.7069685067907" fill="#c3f86b" rx="1.9" class="move frequency" style="animation-delay:-0.931s;animation-duration:2.02s"/></g><g transform="translate(109.1 224)"><rect x="0" y="-65.29312672325781" width="3.8" height="130.58625344651563" fill="#c3f86b" rx="1.9" class="move frequency" style="animation-delay:-1.064s;animation-duration:2.23s"/></g><g transform="translate(117.5 224)"><rect x="0" y="-60.14901117137025" width="3.8" height="120.2980223427405" fill="#c3f86b" rx="1.9" class="move frequency" style="animation-delay:-1.197s;animation-duration:2.44s"/></g><g transform="translate(125.9 224)"><rect x="0" y="-50.82581344764899" width="3.8" height="101.65162689529798" fill="#c3f86b" rx="1.9" class="move frequency" style="animation-delay:-1.330s;animation-duration:1.60s"/></g><g transform="translate(134.3 224)"><rect x="0" y="-40.98728832509589" width="3.8" height="81.97457665019178" fill="#c3f86b" rx="1.9" class="move frequency" style="animation-delay:-1.463s;animation-duration:1.81s"/></g><g transform="translate(142.6 224)"><rect x="0" y="-34.01178620024872" width="3.8" height="68.02357240049744" fill="#c3f86b" rx="1.9" class="move frequency" style="animation-delay:-1.596s;animation-duration:2.02s"/></g><g transform="translate(151.0 224)"><rect x="0" y="-31.17430937651132" width="3.8" height="62.34861875302264" fill="#c3f86b" rx="1.9" class="move frequency" style="animation-delay:-1.729s;animation-duration:2.23s"/></g><g transform="translate(159.4 224)"><rect x="0" y="-31.137185219576676" width="3.8" height="62.27437043915335" fill="#c3f86b" rx="1.9" class="move frequency" style="animation-delay:-1.862s;animation-duration:2.44s"/></g><g transform="translate(167.8 224)"><rect x="0" y="-31.034718209430945" width="3.8" height="62.06943641886189" fill="#c3f86b" rx="1.9" class="move frequency" style="animation-delay:-1.995s;animation-duration:1.60s"/></g><g transform="translate(176.2 224)"><rect x="0" y="-28.469477991525263" width="3.8" height="56.938955983050526" fill="#c3f86b" rx="1.9" class="move frequency" style="animation-delay:-2.128s;animation-duration:1.81s"/></g><g transform="translate(184.6 224)"><rect x="0" y="-23.186255904046675" width="3.8" height="46.37251180809335" fill="#c3f86b" rx="1.9" class="move frequency" style="animation-delay:-2.261s;animation-duration:2.02s"/></g><g transform="translate(193.0 224)"><rect x="0" y="-17.388664602475917" width="3.8" height="34.77732920495183" fill="#c3f86b" rx="1.9" class="move frequency" style="animation-delay:-2.394s;animation-duration:2.23s"/></g><g transform="translate(201.4 224)"><rect x="0" y="-14.491883168280228" width="3.8" height="28.983766336560457" fill="#c3f86b" rx="1.9" class="move frequency" style="animation-delay:-2.527s;animation-duration:2.44s"/></g><g transform="translate(209.7 224)"><rect x="0" y="-17.060127536854793" width="3.8" height="34.120255073709586" fill="#c3f86b" rx="1.9" class="move frequency" style="animation-delay:-2.660s;animation-duration:1.60s"/></g><g transform="translate(218.1 224)"><rect x="0" y="-25.179138611247623" width="3.8" height="50.358277222495246" fill="#c3f86b" rx="1.9" class="move frequency" style="animation-delay:-2.793s;animation-duration:1.81s"/></g><g transform="translate(226.5 224)"><rect x="0" y="-36.25735477758504" width="3.8" height="72.51470955517009" fill="#c3f86b" rx="1.9" class="move frequency" style="animation-delay:-2.926s;animation-duration:2.02s"/></g><g transform="translate(234.9 224)"><rect x="0" y="-46.38948973917625" width="3.8" height="92.7789794783525" fill="#c3f86b" rx="1.9" class="move frequency" style="animation-delay:-3.059s;animation-duration:2.23s"/></g><g transform="translate(243.3 224)"><rect x="0" y="-52.4740059644992" width="3.8" height="104.9480119289984" fill="#c3f86b" rx="1.9" class="move frequency" style="animation-delay:-3.192s;animation-duration:2.44s"/></g><g transform="translate(251.7 224)"><rect x="0" y="-53.82251144192473" width="3.8" height="107.64502288384946" fill="#c3f86b" rx="1.9" class="move frequency" style="animation-delay:-3.325s;animation-duration:1.60s"/></g><g transform="translate(260.1 224)"><rect x="0" y="-52.30913413283951" width="3.8" height="104.61826826567902" fill="#c3f86b" rx="1.9" class="move frequency" style="animation-delay:-3.458s;animation-duration:1.81s"/></g><g transform="translate(268.5 224)"><rect x="0" y="-50.99322263631949" width="3.8" height="101.98644527263897" fill="#c3f86b" rx="1.9" class="move frequency" style="animation-delay:-3.591s;animation-duration:2.02s"/></g><g transform="translate(276.8 224)"><rect x="0" y="-52.072305585435785" width="3.8" height="104.14461117087157" fill="#c3f86b" rx="1.9" class="move frequency" style="animation-delay:-3.724s;animation-duration:2.23s"/></g><g transform="translate(285.2 224)"><rect x="0" y="-55.424103680602414" width="3.8" height="110.84820736120483" fill="#c3f86b" rx="1.9" class="move frequency" style="animation-delay:-3.857s;animation-duration:2.44s"/></g><g transform="translate(293.6 224)"><rect x="0" y="-58.63315586898035" width="3.8" height="117.2663117379607" fill="#c3f86b" rx="1.9" class="move frequency" style="animation-delay:-3.990s;animation-duration:1.60s"/></g><g transform="translate(302.0 224)"><rect x="0" y="-58.49015580109661" width="3.8" height="116.98031160219323" fill="#c3f86b" rx="1.9" class="move frequency" style="animation-delay:-4.123s;animation-duration:1.81s"/></g><g transform="translate(310.4 224)"><rect x="0" y="-53.051470654080944" width="3.8" height="106.10294130816189" fill="#c3f86b" rx="1.9" class="move frequency" style="animation-delay:-4.256s;animation-duration:2.02s"/></g><g transform="translate(318.8 224)"><rect x="0" y="-42.99949005002486" width="3.8" height="85.99898010004972" fill="#c3f86b" rx="1.9" class="move frequency" style="animation-delay:-4.389s;animation-duration:2.23s"/></g><g transform="translate(327.2 224)"><rect x="0" y="-31.46243466634771" width="3.8" height="62.92486933269542" fill="#c3f86b" rx="1.9" class="move frequency" style="animation-delay:-4.522s;animation-duration:2.44s"/></g><g transform="translate(335.5 224)"><rect x="0" y="-22.38204718725399" width="3.8" height="44.76409437450798" fill="#c3f86b" rx="1.9" class="move frequency" style="animation-delay:-4.655s;animation-duration:1.60s"/></g><g transform="translate(343.9 224)"><rect x="0" y="-18.395610366706848" width="3.8" height="36.791220733413695" fill="#c3f86b" rx="1.9" class="move frequency" style="animation-delay:-4.788s;animation-duration:1.81s"/></g><g transform="translate(352.3 224)"><rect x="0" y="-19.492643000719813" width="3.8" height="38.985286001439626" fill="#c3f86b" rx="1.9" class="move frequency" style="animation-delay:-4.921s;animation-duration:2.02s"/></g><g transform="translate(360.7 224)"><rect x="0" y="-23.23819731566707" width="3.8" height="46.47639463133414" fill="#c3f86b" rx="1.9" class="move frequency" style="animation-delay:-5.054s;animation-duration:2.23s"/></g><g transform="translate(369.1 224)"><rect x="0" y="-26.407930002120004" width="3.8" height="52.81586000424001" fill="#c3f86b" rx="1.9" class="move frequency" style="animation-delay:-5.187s;animation-duration:2.44s"/></g><g transform="translate(377.5 224)"><rect x="0" y="-27.02901532456338" width="3.8" height="54.05803064912676" fill="#c3f86b" rx="1.9" class="move frequency" style="animation-delay:-5.320s;animation-duration:1.60s"/></g><g transform="translate(385.9 224)"><rect x="0" y="-25.581310775878116" width="3.8" height="51.16262155175623" fill="#c3f86b" rx="1.9" class="move frequency" style="animation-delay:-5.453s;animation-duration:1.81s"/></g><g transform="translate(394.3 224)"><rect x="0" y="-24.6297644776859" width="3.8" height="49.2595289553718" fill="#c3f86b" rx="1.9" class="move frequency" style="animation-delay:-5.586s;animation-duration:2.02s"/></g><g transform="translate(402.6 224)"><rect x="0" y="-27.117876143808818" width="3.8" height="54.235752287617636" fill="#c3f86b" rx="1.9" class="move frequency" style="animation-delay:-5.719s;animation-duration:2.23s"/></g><g transform="translate(411.0 224)"><rect x="0" y="-34.37083471844453" width="3.8" height="68.74166943688905" fill="#c3f86b" rx="1.9" class="move frequency" style="animation-delay:-5.852s;animation-duration:2.44s"/></g><g transform="translate(419.4 224)"><rect x="0" y="-45.03848409572141" width="3.8" height="90.07696819144282" fill="#c3f86b" rx="1.9" class="move frequency" style="animation-delay:-5.985s;animation-duration:1.60s"/></g><g transform="translate(427.8 224)"><rect x="0" y="-55.6419166585481" width="3.8" height="111.2838333170962" fill="#c3f86b" rx="1.9" class="move frequency" style="animation-delay:-6.118s;animation-duration:1.81s"/></g><g transform="translate(436.2 224)"><rect x="0" y="-62.416470389460635" width="3.8" height="124.83294077892127" fill="#c3f86b" rx="1.9" class="move frequency" style="animation-delay:-6.251s;animation-duration:2.02s"/></g><g transform="translate(444.6 224)"><rect x="0" y="-63.35706591647527" width="3.8" height="126.71413183295054" fill="#c3f86b" rx="1.9" class="move frequency" style="animation-delay:-6.384s;animation-duration:2.23s"/></g><g transform="translate(453.0 224)"><rect x="0" y="-59.24649222383668" width="3.8" height="118.49298444767336" fill="#c3f86b" rx="1.9" class="move frequency" style="animation-delay:-6.517s;animation-duration:2.44s"/></g><g transform="translate(461.4 224)"><rect x="0" y="-53.05968738280759" width="3.8" height="106.11937476561518" fill="#c3f86b" rx="1.9" class="move frequency" style="animation-delay:-6.650s;animation-duration:1.60s"/></g><g transform="translate(469.7 224)"><rect x="0" y="-48.11616835888789" width="3.8" height="96.23233671777578" fill="#c3f86b" rx="1.9" class="move frequency" style="animation-delay:-6.783s;animation-duration:1.81s"/></g><g transform="translate(478.1 224)"><rect x="0" y="-46.105163376894915" width="3.8" height="92.21032675378983" fill="#c3f86b" rx="1.9" class="move frequency" style="animation-delay:-6.916s;animation-duration:2.02s"/></g><g transform="translate(486.5 224)"><rect x="0" y="-46.17791748679715" width="3.8" height="92.3558349735943" fill="#c3f86b" rx="1.9" class="move frequency" style="animation-delay:-7.049s;animation-duration:2.23s"/></g><g transform="translate(494.9 224)"><rect x="0" y="-45.64731812482926" width="3.8" height="91.29463624965852" fill="#c3f86b" rx="1.9" class="move frequency" style="animation-delay:-7.182s;animation-duration:2.44s"/></g><g transform="translate(503.3 224)"><rect x="0" y="-41.853951149195346" width="3.8" height="83.70790229839069" fill="#c3f86b" rx="1.9" class="move frequency" style="animation-delay:-7.315s;animation-duration:1.60s"/></g><g transform="translate(511.7 224)"><rect x="0" y="-34.045573617224534" width="3.8" height="68.09114723444907" fill="#c3f86b" rx="1.9" class="move frequency" style="animation-delay:-7.448s;animation-duration:1.81s"/></g><g transform="translate(520.1 224)"><rect x="0" y="-24.106151850801368" width="3.8" height="48.212303701602735" fill="#c3f86b" rx="1.9" class="move frequency" style="animation-delay:-7.581s;animation-duration:2.02s"/></g><g transform="translate(528.5 224)"><rect x="0" y="-15.667877245638424" width="3.8" height="31.335754491276848" fill="#c3f86b" rx="1.9" class="move frequency" style="animation-delay:-7.714s;animation-duration:2.23s"/></g><g transform="translate(536.8 224)"><rect x="0" y="-12.122038191807397" width="3.8" height="24.244076383614793" fill="#c3f86b" rx="1.9" class="move frequency" style="animation-delay:-7.847s;animation-duration:2.44s"/></g><g transform="translate(545.2 224)"><rect x="0" y="-14.716200655357559" width="3.8" height="29.432401310715118" fill="#c3f86b" rx="1.9" class="move frequency" style="animation-delay:-7.980s;animation-duration:1.60s"/></g><g transform="translate(553.6 224)"><rect x="0" y="-21.87813982597413" width="3.8" height="43.75627965194826" fill="#c3f86b" rx="1.9" class="move frequency" style="animation-delay:-8.113s;animation-duration:1.81s"/></g><path d="M24 316L576 316" stroke="#303638"/><text x="36" y="349" font-size="19" fill="#a0a9a2" >source → MediaKit → libmpv → output</text>
</svg>
