<svg width="1180" height="430" viewBox="0 0 1180 430" xmlns="http://www.w3.org/2000/svg" role="img" aria-labelledby="title desc">
  <title id="title">Archive Log</title>
  <desc id="desc">A cobalt editorial record of Eclipxse's GitHub activity.</desc>
  <defs>
    <filter id="paper" x="-5%" y="-5%" width="110%" height="110%">
      <feTurbulence type="fractalNoise" baseFrequency=".68" numOctaves="2" seed="21" result="n"/>
      <feColorMatrix in="n" values="1 0 0 0 0 0 1 0 0 0 0 0 1 0 0 0 0 0 .05 0" result="grain"/>
      <feBlend in="SourceGraphic" in2="grain" mode="multiply"/>
    </filter>
  </defs>
  <rect width="1180" height="430" fill="#F1EFE9"/>
  <rect width="1180" height="430" fill="#F1EFE9" filter="url(#paper)"/>
  <g fill="#153B91">
    <rect width="1180" height="11"/>
    <text x="40" y="39" font-family="Consolas, monospace" font-size="9" font-weight="700">RECORD: GITHUB_ACTIVITY // WINDOW: 365 DAYS</text>
    <text x="934" y="39" font-family="Consolas, monospace" font-size="9" font-weight="700">SYNC: 04/07/26</text>
    <path d="M40 55H1140" stroke="#153B91" stroke-opacity=".55"/>

    <text x="40" y="105" font-family="Georgia, serif" font-size="46" font-weight="700" font-style="italic">Archive Log</text>
    <path d="M322 86H406" stroke="#153B91" stroke-width="3"/>
    <path d="M428 65L433 82L450 87L433 92L428 109L423 92L406 87L423 82Z"/>
    <text x="40" y="131" font-family="Consolas, monospace" font-size="10">PUBLIC OUTPUT, RECENT BURSTS, AND LANGUAGE MEMORY.</text>

    <path d="M40 153H1140" stroke="#153B91"/>
    <path d="M324 153V348M704 153V348" stroke="#153B91" stroke-opacity=".42"/>

    <text x="40" y="181" font-family="Consolas, monospace" font-size="9" font-weight="700">TOTAL CONTRIBUTIONS</text>
    <text x="35" y="295" font-family="Georgia, serif" font-size="126" font-weight="700">52</text>
    <text x="213" y="292" font-family="Georgia, serif" font-size="17" font-style="italic">last year</text>
    <path d="M40 316H282" stroke="#153B91" stroke-width="8"/>
    <text x="40" y="340" font-family="Consolas, monospace" font-size="9">13 ACTIVE DAYS // PEAK OUTPUT: 12</text>

    <text x="352" y="181" font-family="Consolas, monospace" font-size="9" font-weight="700">RECENT SIGNAL / JUN 21—30</text>
    <path d="M352 308H676M352 268H676M352 228H676" stroke="#153B91" stroke-opacity=".18"/>
    <path d="M352 308H532L550 308L568 188L586 268L604 208L622 238L640 308H676" fill="none" stroke="#153B91" stroke-width="3"/>
    <circle cx="568" cy="188" r="6"/><circle cx="586" cy="268" r="4"/>
    <circle cx="604" cy="208" r="6"/><circle cx="622" cy="238" r="4"/>
    <text x="352" y="333" font-family="Consolas, monospace" font-size="8">21</text>
    <text x="559" y="333" font-family="Consolas, monospace" font-size="8">26</text>
    <text x="579" y="333" font-family="Consolas, monospace" font-size="8">28</text>
    <text x="597" y="333" font-family="Consolas, monospace" font-size="8">29</text>
    <text x="615" y="333" font-family="Consolas, monospace" font-size="8">30</text>

    <text x="732" y="181" font-family="Consolas, monospace" font-size="9" font-weight="700">REPOSITORY INDEX</text>
    <text x="732" y="229" font-family="Georgia, serif" font-size="44" font-weight="700">12</text>
    <text x="800" y="227" font-family="Consolas, monospace" font-size="9">PUBLIC REPOS</text>
    <text x="732" y="272" font-family="Georgia, serif" font-size="44" font-weight="700">03</text>
    <text x="800" y="270" font-family="Consolas, monospace" font-size="9">BEST STREAK / DAYS</text>
    <text x="732" y="313" font-family="Georgia, serif" font-size="44" font-weight="700">12</text>
    <text x="800" y="311" font-family="Consolas, monospace" font-size="9">BEST DAY / JUN 26</text>

    <text x="978" y="181" font-family="Consolas, monospace" font-size="9" font-weight="700">LANGUAGE MEMORY</text>
    <text x="978" y="211" font-family="Consolas, monospace" font-size="9">JS</text>
    <rect x="1016" y="202" width="112" height="10"/>
    <text x="978" y="239" font-family="Consolas, monospace" font-size="9">TS</text>
    <rect x="1016" y="230" width="84" height="10" fill-opacity=".82"/>
    <text x="978" y="267" font-family="Consolas, monospace" font-size="9">VUE</text>
    <rect x="1016" y="258" width="56" height="10" fill-opacity=".64"/>
    <text x="978" y="295" font-family="Consolas, monospace" font-size="9">KT</text>
    <rect x="1016" y="286" width="28" height="10" fill-opacity=".46"/>
    <text x="978" y="329" font-family="Consolas, monospace" font-size="8">4 / 3 / 2 / 1</text>

    <path d="M40 348H1140" stroke="#153B91"/>
    <text x="40" y="378" font-family="Consolas, monospace" font-size="9" font-weight="700">PEAK_RECORD:</text>
    <text x="148" y="378" font-family="Consolas, monospace" font-size="9">12 CONTRIBUTIONS ON 26 JUN 2026</text>
    <text x="784" y="378" font-family="Consolas, monospace" font-size="9">STARS: 0 // STATUS: EARLY SIGNAL</text>
    <path d="M40 395H1140" stroke="#153B91" stroke-opacity=".35"/>
    <text x="40" y="414" font-family="Consolas, monospace" font-size="8">THE NATIVE CONTRIBUTION GRID CONTINUES BELOW //</text>
    <text x="1016" y="414" font-family="Consolas, monospace" font-size="8">END LOG</text>
  </g>
  <g fill="#153B91" opacity=".72">
    <rect x="460" y="364" width="58" height="4"/><rect x="527" y="364" width="84" height="4"/>
    <rect x="446" y="372" width="34" height="4"/><rect x="490" y="372" width="104" height="4"/>
    <rect x="471" y="380" width="74" height="4"/><rect x="554" y="380" width="60" height="4"/>
  </g>
</svg>
