<svg width="1180" height="320" viewBox="0 0 1180 320" fill="none" xmlns="http://www.w3.org/2000/svg" role="img" aria-labelledby="title desc">
  <title id="title">Now Building</title>
  <desc id="desc">A sleek graphite project board with subtle purple and soft red accents.</desc>
  <defs>
    <linearGradient id="bg" x1="0" y1="0" x2="1180" y2="320" gradientUnits="userSpaceOnUse">
      <stop stop-color="#080A0F"/>
      <stop offset="1" stop-color="#11131A"/>
    </linearGradient>
    <linearGradient id="line" x1="96" y1="0" x2="1084" y2="0" gradientUnits="userSpaceOnUse">
      <stop stop-color="#8B5CF6"/>
      <stop offset="0.55" stop-color="#6B7280"/>
      <stop offset="1" stop-color="#F87171"/>
    </linearGradient>
  </defs>

  <rect width="1180" height="320" fill="url(#bg)"/>
  <rect x="52" y="42" width="1076" height="236" rx="18" fill="#151821" stroke="#2A2F3A"/>
  <rect x="76" y="66" width="1028" height="188" rx="14" fill="#0F1117" stroke="#252A35"/>
  <path d="M96 96H1084" stroke="url(#line)" stroke-width="2"/>

  <g font-family="Inter, Segoe UI, Arial, sans-serif">
    <text x="96" y="88" fill="#F4F5F7" font-size="24" font-weight="850">Now building</text>
    <text x="270" y="88" fill="#8D95A6" font-size="13" font-weight="650">clean projects, quiet polish, no noise</text>

    <rect x="96" y="124" width="258" height="92" rx="12" fill="#171A23" stroke="#2C3140"/>
    <rect x="96" y="124" width="4" height="92" rx="2" fill="#8B5CF6"/>
    <text x="122" y="154" fill="#F4F5F7" font-size="18" font-weight="800">Aura Browser</text>
    <text x="122" y="181" fill="#9CA3AF" font-size="13" font-weight="600">dark UI, tabs, SVG controls</text>
    <rect x="122" y="196" width="96" height="6" rx="3" fill="#8B5CF6"/>
    <rect x="224" y="196" width="42" height="6" rx="3" fill="#2D3340"/>

    <rect x="380" y="124" width="222" height="92" rx="12" fill="#171A23" stroke="#2C3140"/>
    <rect x="380" y="124" width="4" height="92" rx="2" fill="#F87171"/>
    <text x="406" y="154" fill="#F4F5F7" font-size="18" font-weight="800">Discord Bots</text>
    <text x="406" y="181" fill="#9CA3AF" font-size="13" font-weight="600">music, commands, utility</text>
    <circle cx="409" cy="201" r="4" fill="#F87171"/>
    <circle cx="425" cy="201" r="4" fill="#4B5563"/>
    <circle cx="441" cy="201" r="4" fill="#4B5563"/>

    <rect x="628" y="124" width="222" height="92" rx="12" fill="#171A23" stroke="#2C3140"/>
    <rect x="628" y="124" width="4" height="92" rx="2" fill="#6B7280"/>
    <text x="654" y="154" fill="#F4F5F7" font-size="18" font-weight="800">Portfolio</text>
    <text x="654" y="181" fill="#9CA3AF" font-size="13" font-weight="600">identity, layout, details</text>
    <path d="M654 201H766" stroke="#374151" stroke-width="6" stroke-linecap="round"/>
    <path d="M654 201H718" stroke="#A78BFA" stroke-width="6" stroke-linecap="round"/>

    <rect x="876" y="124" width="208" height="92" rx="12" fill="#171A23" stroke="#2C3140"/>
    <rect x="876" y="124" width="4" height="92" rx="2" fill="#A78BFA"/>
    <text x="902" y="154" fill="#F4F5F7" font-size="18" font-weight="800">Micro Tools</text>
    <text x="902" y="181" fill="#9CA3AF" font-size="13" font-weight="600">small ideas made useful</text>
    <rect x="902" y="196" width="44" height="6" rx="3" fill="#F87171"/>
    <rect x="952" y="196" width="66" height="6" rx="3" fill="#8B5CF6"/>

    <text x="96" y="242" fill="#6B7280" font-size="12" font-weight="700" letter-spacing="2">CURRENT MODE</text>
    <text x="225" y="242" fill="#F4F5F7" font-size="12" font-weight="700">shipping, then polishing</text>
  </g>
</svg>
