<svg width="1280" height="260" viewBox="0 0 1280 260" fill="none" xmlns="http://www.w3.org/2000/svg" role="img" aria-labelledby="title desc">
  <title id="title">Featured Eclipxse projects</title>
  <desc id="desc">Three highlighted cards for Aura Browser, Portfolio, and Bot Lab.</desc>
  <rect width="1280" height="260" fill="#0D1117"/>
  <rect x="12" y="12" width="1256" height="236" fill="#FFF7E8" stroke="#111111" stroke-width="6"/>
  <rect x="42" y="42" width="368" height="176" fill="#FF4FD8" stroke="#111111" stroke-width="6"/>
  <rect x="456" y="42" width="368" height="176" fill="#7C3AED" stroke="#111111" stroke-width="6"/>
  <rect x="870" y="42" width="368" height="176" fill="#FACC15" stroke="#111111" stroke-width="6"/>

  <text x="70" y="92" fill="#111111" font-family="Inter, Segoe UI, Arial, sans-serif" font-size="18" font-weight="900">01 / CURRENT BUILD</text>
  <text x="70" y="139" fill="#FFFFFF" font-family="Inter, Segoe UI, Arial, sans-serif" font-size="42" font-weight="900">AURA BROWSER</text>
  <text x="70" y="174" fill="#111111" font-family="Inter, Segoe UI, Arial, sans-serif" font-size="20" font-weight="800">custom Chromium shell</text>
  <path d="M346 74L358 100L386 110L360 122L348 150L336 124L308 114L334 102L346 74Z" fill="#FACC15" stroke="#111111" stroke-width="4"/>

  <text x="484" y="92" fill="#FFFFFF" font-family="Inter, Segoe UI, Arial, sans-serif" font-size="18" font-weight="900">02 / MAIN SITE</text>
  <text x="484" y="139" fill="#FFFFFF" font-family="Inter, Segoe UI, Arial, sans-serif" font-size="42" font-weight="900">PORTFOLIO</text>
  <text x="484" y="174" fill="#C9D1D9" font-family="Inter, Segoe UI, Arial, sans-serif" font-size="20" font-weight="800">motion, projects, identity</text>
  <circle cx="744" cy="112" r="39" fill="#0D1117" stroke="#FACC15" stroke-width="5"/>
  <circle cx="759" cy="100" r="39" fill="#7C3AED" stroke="#FF4FD8" stroke-width="4"/>

  <text x="898" y="92" fill="#111111" font-family="Inter, Segoe UI, Arial, sans-serif" font-size="18" font-weight="900">03 / TOOLING</text>
  <text x="898" y="139" fill="#111111" font-family="Inter, Segoe UI, Arial, sans-serif" font-size="42" font-weight="900">BOT LAB</text>
  <text x="898" y="174" fill="#111111" font-family="Inter, Segoe UI, Arial, sans-serif" font-size="20" font-weight="800">Discord systems and experiments</text>
  <rect x="1160" y="78" width="34" height="34" fill="#86EFAC" stroke="#111111" stroke-width="4"/>
  <rect x="1128" y="110" width="34" height="34" fill="#FF4FD8" stroke="#111111" stroke-width="4"/>
  <rect x="1192" y="142" width="34" height="34" fill="#7C3AED" stroke="#111111" stroke-width="4"/>
</svg>

