<svg width="1180" height="380" viewBox="0 0 1180 380" fill="none" xmlns="http://www.w3.org/2000/svg" role="img" aria-labelledby="title desc">
  <title id="title">Stack</title>
  <desc id="desc">A sleek graphite tech stack board with muted purple and soft red accents.</desc>
  <rect width="1180" height="380" fill="#090B10"/>
  <rect x="52" y="42" width="1076" height="296" rx="18" fill="#151821" stroke="#2A2F3A"/>
  <g font-family="Inter, Segoe UI, Arial, sans-serif">
    <text x="88" y="92" fill="#F4F5F7" font-size="26" font-weight="850">Stack</text>
    <text x="178" y="92" fill="#8D95A6" font-size="13" font-weight="650">small set, used on real builds</text>
    <path d="M88 118H1092" stroke="#252A35"/>

    <text x="88" y="154" fill="#6B7280" font-size="12" font-weight="800" letter-spacing="2">LANGUAGES</text>
    <rect x="88" y="174" width="126" height="36" rx="8" fill="#0F1117" stroke="#2C3140"/>
    <text x="116" y="197" fill="#F4F5F7" font-size="13" font-weight="750">Python</text>
    <rect x="226" y="174" width="150" height="36" rx="8" fill="#191B26" stroke="#8B5CF6"/>
    <text x="252" y="197" fill="#F4F5F7" font-size="13" font-weight="750">TypeScript</text>
    <rect x="388" y="174" width="126" height="36" rx="8" fill="#0F1117" stroke="#2C3140"/>
    <text x="424" y="197" fill="#F4F5F7" font-size="13" font-weight="750">Kotlin</text>
    <rect x="526" y="174" width="126" height="36" rx="8" fill="#0F1117" stroke="#2C3140"/>
    <text x="563" y="197" fill="#F4F5F7" font-size="13" font-weight="750">HTML</text>
    <rect x="664" y="174" width="96" height="36" rx="8" fill="#191B26" stroke="#F87171"/>
    <text x="695" y="197" fill="#F4F5F7" font-size="13" font-weight="750">CSS</text>

    <text x="88" y="250" fill="#6B7280" font-size="12" font-weight="800" letter-spacing="2">APP + WEB</text>
    <rect x="88" y="270" width="120" height="36" rx="8" fill="#0F1117" stroke="#2C3140"/>
    <text x="124" y="293" fill="#F4F5F7" font-size="13" font-weight="750">React</text>
    <rect x="220" y="270" width="126" height="36" rx="8" fill="#0F1117" stroke="#2C3140"/>
    <text x="254" y="293" fill="#F4F5F7" font-size="13" font-weight="750">Node.js</text>
    <rect x="358" y="270" width="142" height="36" rx="8" fill="#191B26" stroke="#8B5CF6"/>
    <text x="393" y="293" fill="#F4F5F7" font-size="13" font-weight="750">Electron</text>
    <rect x="512" y="270" width="112" height="36" rx="8" fill="#0F1117" stroke="#2C3140"/>
    <text x="545" y="293" fill="#F4F5F7" font-size="13" font-weight="750">Vite</text>
    <rect x="636" y="270" width="132" height="36" rx="8" fill="#191B26" stroke="#F87171"/>
    <text x="674" y="293" fill="#F4F5F7" font-size="13" font-weight="750">Bun</text>
    <rect x="780" y="270" width="176" height="36" rx="8" fill="#0F1117" stroke="#2C3140"/>
    <text x="815" y="293" fill="#F4F5F7" font-size="13" font-weight="750">Browser Shells</text>

    <rect x="824" y="136" width="268" height="88" rx="12" fill="#10131A" stroke="#2C3140"/>
    <text x="850" y="168" fill="#F4F5F7" font-size="16" font-weight="800">Workflow</text>
    <text x="850" y="194" fill="#9CA3AF" font-size="13" font-weight="600">GitHub, Vercel, Cloudflare</text>
    <path d="M850 210H1026" stroke="#374151" stroke-width="6" stroke-linecap="round"/>
    <path d="M850 210H936" stroke="#8B5CF6" stroke-width="6" stroke-linecap="round"/>
  </g>
</svg>
